<svg width="24" height="24" viewBox="0 0 24 24" fill="none" xmlns="http://www.w3.org/2000/svg">
<path fill-rule="evenodd" clip-rule="evenodd" d="M12 0.75C10.7574 0.75 9.75 1.75736 9.75 3V9.75H3C1.75736 9.75 0.75 10.7574 0.75 12C0.75 13.2426 1.75736 14.25 3 14.25H9.75V21C9.75 22.2426 10.7574 23.25 12 23.25C13.2426 23.25 14.25 22.2426 14.25 21V14.25H21C22.2426 14.25 23.25 13.2426 23.25 12C23.25 10.7574 22.2426 9.75 21 9.75H14.25V3C14.25 1.75736 13.2426 0.75 12 0.75Z" fill="#00E344" fill-opacity="0.57"/>
</svg>
