<svg width="28" height="28" viewBox="0 0 28 28" fill="none" xmlns="http://www.w3.org/2000/svg">
<path d="M16.9574 5.97083C18.363 4.56523 20.6419 4.56522 22.0475 5.97083C23.4531 7.37644 23.4531 9.65538 22.0475 11.061L10.996 22.1125C9.59039 23.5181 7.31144 23.5181 5.90584 22.1125C4.50023 20.7069 4.50023 18.428 5.90584 17.0224L16.9574 5.97083Z" fill="#FF9900" fill-opacity="0.79"/>
<path fill-rule="evenodd" clip-rule="evenodd" d="M24.0977 8.12006C24.0773 8.24077 24.1121 8.36551 24.1987 8.45208C24.338 8.5914 24.5639 8.5914 24.7032 8.45208L25.0943 8.06098C26.4999 6.65538 26.4999 4.37644 25.0943 2.97083C23.6887 1.56522 21.4097 1.56522 20.0041 2.97083L19.613 3.36193C19.4737 3.50124 19.4737 3.72712 19.613 3.86644C19.6996 3.95301 19.8243 3.98784 19.945 3.9674C21.0555 3.77931 22.2372 4.11379 23.0943 4.97083C23.9513 5.82787 24.2858 7.00959 24.0977 8.12006Z" fill="#FF9900" fill-opacity="0.79"/>
<path fill-rule="evenodd" clip-rule="evenodd" d="M3.72368 20.601C3.72399 20.5677 3.71121 20.5355 3.68767 20.512C3.62426 20.4486 3.5164 20.4731 3.48666 20.5577L2.07375 24.577C1.79543 25.3687 2.55715 26.1303 3.34877 25.8521L7.40136 24.4274C7.47053 24.4031 7.4906 24.3149 7.43875 24.2631C7.4195 24.2438 7.3932 24.2334 7.36597 24.2337C6.43047 24.2449 5.49147 23.8936 4.77773 23.1797C4.06634 22.4684 3.715 21.5333 3.72368 20.601Z" fill="#FF9900" fill-opacity="0.79"/>
</svg>
